<svg width="64" height="76" viewBox="0 0 64 76" fill="none" xmlns="http://www.w3.org/2000/svg">
<path d="M61.1 22.4467H61H36.3C50.1 15.5467 51.2 11.1467 50.7 8.74674C49.5 4.74674 45 1.74674 40.7 3.34674C35.1 5.44674 33.6 13.7467 32.1 19.7467C30.1 13.6467 28.3 5.94674 23.9 2.04674C22.6 0.946744 20.8 -0.253256 18.1 0.0467436C14.1 0.446744 8.3 5.44674 10.6 11.0467C12.9 16.4467 20.3 19.8467 25.2 22.5467H3.2H2.9C1.3 22.5467 0 23.8467 0 25.4467V36.7467C0 38.3467 1.3 39.6467 2.9 39.6467H3.2V72.9467V75.3467V75.9467H61V75.4467V72.9467V39.5467H61.1C62.7 39.5467 64 38.2467 64 36.6467V25.3467C64 23.7467 62.7 22.4467 61.1 22.4467ZM42.4 5.84674C44.5 5.54674 47.4 7.14674 47.7 9.04674C48.1 11.8467 44.3 14.3467 42.6 15.4467C40.1 17.1467 37.7 18.0467 35.3 19.5467C36.2 15.8467 37.8 6.54674 42.4 5.84674ZM19.5 15.8467C17.3 14.3467 13 11.4467 13.1 8.04674C13.2 4.44674 18.8 1.44674 21.9 4.14674C25.8 7.54674 27.6 15.2467 29 20.7467C25.8 19.2467 22.7 17.9467 19.5 15.8467ZM25.5 72.9467H6.1V39.5467H25.5V72.9467ZM25.5 36.4467H3V25.4467H25.5V36.4467ZM35.7 36.4467V39.4467V72.9467H28.5V39.5467V36.5467V25.5467H35.7V36.4467ZM58 72.9467H38.6V39.5467H58V72.9467ZM60.9 36.4467H38.6V25.4467H60.9V36.4467Z" fill="#83B3D3"/>
</svg>
