<svg width="75" height="70" viewBox="0 0 75 70" fill="none" xmlns="http://www.w3.org/2000/svg">
<path d="M70.6002 46.7H4.8002C2.5002 46.7 0.700195 48.6 0.700195 51V54.5C0.700195 56.9 2.6002 58.8 4.8002 58.8H5.7002V59.9C5.7002 65.4 10.0002 70 15.3002 70H59.9002C65.2002 70 69.5002 65.5 69.5002 59.9V58.8H70.4002C72.7002 58.8 74.5002 56.9 74.5002 54.5V51C74.7002 48.7 72.8002 46.7 70.6002 46.7ZM66.7002 59.9C66.7002 63.8 63.7002 66.9 60.0002 66.9H15.3002C11.6002 66.9 8.6002 63.7 8.6002 59.9V58.8H66.7002V59.9ZM71.8002 54.5C71.8002 55.2 71.2002 55.8 70.6002 55.8H4.7002C4.0002 55.8 3.5002 55.2 3.5002 54.5V51C3.5002 50.3 4.1002 49.7 4.7002 49.7H70.5002C71.2002 49.7 71.7002 50.3 71.7002 51C71.8002 51 71.8002 54.5 71.8002 54.5Z" fill="#83B3D3"/>
<path d="M16.3002 38.4L21.7002 42.5L27.0002 38.4L32.3002 42.5L37.6002 38.4L43.0002 42.5L48.3002 38.4L53.6002 42.5L59.0002 38.4L64.3002 42.5L70.5002 37.8L68.8002 35.3L64.3002 38.7L59.0002 34.6L53.6002 38.7L48.3002 34.6L43.0002 38.7L37.6002 34.6L32.3002 38.7L27.0002 34.6L21.7002 38.7L16.3002 34.6L11.0002 38.7L6.5002 35.3L4.8002 37.8L11.0002 42.5L16.3002 38.4Z" fill="#83B3D3"/>
<path d="M8.7002 31.5H69.5002C69.5002 30.9 69.6002 30.3 69.6002 29.6C69.6002 29.2 69.6002 28.8 69.6002 28.4C68.9002 12.7 54.9002 0 37.7002 0C20.4002 0 6.4002 12.7 5.7002 28.5C5.7002 28.9 5.7002 29.3 5.7002 29.7C5.7002 30.3 5.7002 31 5.8002 31.6H8.7002V31.5ZM37.7002 3C53.3002 3 66.1002 14.3 66.7002 28.5H8.7002C9.3002 14.4 22.1002 3 37.7002 3Z" fill="#83B3D3"/>
<path d="M37.7002 17.3C38.7495 17.3 39.6002 16.4046 39.6002 15.3C39.6002 14.1954 38.7495 13.3 37.7002 13.3C36.6509 13.3 35.8002 14.1954 35.8002 15.3C35.8002 16.4046 36.6509 17.3 37.7002 17.3Z" fill="#83B3D3"/>
<path d="M29.9002 12.2C30.9495 12.2 31.8002 11.3046 31.8002 10.2C31.8002 9.09543 30.9495 8.2 29.9002 8.2C28.8509 8.2 28.0002 9.09543 28.0002 10.2C28.0002 11.3046 28.8509 12.2 29.9002 12.2Z" fill="#83B3D3"/>
<path d="M45.4002 12.2C46.4495 12.2 47.3002 11.3046 47.3002 10.2C47.3002 9.09543 46.4495 8.2 45.4002 8.2C44.3509 8.2 43.5002 9.09543 43.5002 10.2C43.5002 11.3046 44.3509 12.2 45.4002 12.2Z" fill="#83B3D3"/>
</svg>
