<svg width="6" height="9" viewBox="0 0 6 9" fill="none" xmlns="http://www.w3.org/2000/svg">
<path d="M4.71805 4.44752L4.74453 4.47122L4.75006 4.4749L4.74453 4.47859L4.71805 4.50228L0.918051 7.90228L0.907708 7.91154L0.898512 7.92073C0.898483 7.9207 0.892572 7.92608 0.879155 7.93523C0.868002 7.94283 0.855121 7.95067 0.841644 7.95799L0.81044 7.92679C0.809996 7.92578 0.809453 7.92445 0.808845 7.92278C0.805078 7.91242 0.801448 7.89561 0.801448 7.8749C0.801448 7.8542 0.805078 7.83738 0.808845 7.82702C0.809243 7.82593 0.809613 7.82498 0.809946 7.82418L3.99342 4.83967L4.38853 4.46925L3.98778 4.10493L0.700576 1.11656C0.693509 1.10839 0.684249 1.09531 0.676126 1.07829C0.674163 1.07417 0.672457 1.07023 0.670979 1.0665C0.727435 1.0383 0.787653 1.0249 0.838948 1.0249C0.878667 1.0249 0.898226 1.03211 0.904201 1.03476L0.907708 1.03827L0.918051 1.04752L4.71805 4.44752Z" fill="white" stroke="black"/>
</svg>
