<svg width="75" height="72" viewBox="0 0 75 72" fill="none" xmlns="http://www.w3.org/2000/svg">
<path d="M29.5 65H45.5V41.2H29.5V65ZM32.4 44.1H42.5V62.1H32.4V44.1Z" fill="#83B3D3"/>
<path d="M72.6 39.3L74.7 37.2L64.8 27.3V0H50.9V13.6L37.3 0L0 37.2L2.1 39.3L9.9 31.5V69.1H5.9V72H69.8V69.1H64.7V31.5L72.6 39.3ZM61.8 69.1H12.8V28.5L37.3 4.1L61.8 28.5V69.1ZM61.8 24.4L53.9 16.5V2.9H61.8V24.4Z" fill="#83B3D3"/>
<path d="M29.7 27.1C29.7 31.4 33.2 34.8 37.4 34.8C41.7 34.8 45.2 31.3 45.2 27.1C45.2 22.8 41.7 19.4 37.4 19.4C33.2 19.4 29.7 22.8 29.7 27.1ZM37.5 22.1C40.2 22.1 42.5 24.3 42.5 27C42.5 29.7 40.3 31.9 37.5 31.9C34.8 31.9 32.5 29.7 32.5 27C32.5 24.3 34.7 22.1 37.5 22.1Z" fill="#83B3D3"/>
<path d="M19.9 41.2H16.9V45.1H19.9V41.2Z" fill="#83B3D3"/>
<path d="M25.8 41.2H22.8V45.1H25.8V41.2Z" fill="#83B3D3"/>
<path d="M19.9 47.2H16.9V51.1H19.9V47.2Z" fill="#83B3D3"/>
<path d="M25.8 47.2H22.8V51.1H25.8V47.2Z" fill="#83B3D3"/>
<path d="M51.8 41.2H48.8V45.1H51.8V41.2Z" fill="#83B3D3"/>
<path d="M57.7 41.2H54.7V45.1H57.7V41.2Z" fill="#83B3D3"/>
<path d="M51.8 47.2H48.8V51.1H51.8V47.2Z" fill="#83B3D3"/>
<path d="M57.7 47.2H54.7V51.1H57.7V47.2Z" fill="#83B3D3"/>
</svg>
