<svg width="331" height="44" viewBox="0 0 331 44" fill="none" xmlns="http://www.w3.org/2000/svg">
<path d="M1.90469 20.04H8.94469V12.8H11.8247V20.04H18.8647V22.92H11.8247V30.12H8.94469V22.92H1.90469V20.04ZM24.9 35L34.94 11.56L36.7 9.6L34.34 9.96H22.94V7H39.66V8.08L28.14 35H24.9ZM59.8925 43.8C58.6658 42.52 57.6258 41.1067 56.7725 39.56C55.9192 38.04 55.2258 36.48 54.6925 34.88C54.1858 33.2533 53.8125 31.6267 53.5725 30C53.3325 28.3467 53.2125 26.7733 53.2125 25.28C53.2125 23.8133 53.3325 22.2667 53.5725 20.64C53.8125 19.0133 54.1992 17.3867 54.7325 15.76C55.2658 14.1067 55.9592 12.4933 56.8125 10.92C57.6925 9.34667 58.7592 7.88 60.0125 6.52L61.9325 7.92C60.8658 9.28 59.9725 10.6933 59.2525 12.16C58.5592 13.6 57.9992 15.0667 57.5725 16.56C57.1458 18.0533 56.8392 19.5467 56.6525 21.04C56.4925 22.5067 56.4125 23.92 56.4125 25.28C56.4125 26.56 56.5058 27.96 56.6925 29.48C56.9058 30.9733 57.2258 32.48 57.6525 34C58.1058 35.4933 58.6792 36.96 59.3725 38.4C60.0925 39.84 60.9458 41.1467 61.9325 42.32L59.8925 43.8ZM64.7434 28.32C64.7434 26.64 65.1834 25.1867 66.0634 23.96C66.9434 22.7067 68.3168 21.5733 70.1834 20.56C69.5168 20.16 68.8901 19.7467 68.3034 19.32C67.7434 18.8667 67.2368 18.36 66.7834 17.8C66.3568 17.24 66.0101 16.6133 65.7434 15.92C65.5034 15.2267 65.3834 14.4267 65.3834 13.52C65.3834 12.48 65.5568 11.5333 65.9034 10.68C66.2768 9.82666 66.7968 9.09333 67.4634 8.48C68.1568 7.86666 68.9701 7.38666 69.9034 7.04C70.8634 6.69333 71.9434 6.52 73.1434 6.52C74.2634 6.52 75.2768 6.68 76.1834 7C77.0901 7.32 77.8501 7.76 78.4634 8.32C79.1034 8.88 79.5968 9.54667 79.9434 10.32C80.2901 11.0933 80.4634 11.9467 80.4634 12.88C80.4634 14.4 80.1168 15.7467 79.4234 16.92C78.7301 18.0667 77.5834 19.2 75.9834 20.32C76.6768 20.72 77.3301 21.16 77.9434 21.64C78.5834 22.12 79.1301 22.6533 79.5834 23.24C80.0634 23.8267 80.4368 24.4933 80.7034 25.24C80.9701 25.96 81.1034 26.7867 81.1034 27.72C81.1034 28.8667 80.9168 29.92 80.5434 30.88C80.1701 31.8133 79.6234 32.6267 78.9034 33.32C78.1834 33.9867 77.3034 34.52 76.2634 34.92C75.2234 35.2933 74.0368 35.48 72.7034 35.48C71.4234 35.48 70.2901 35.2933 69.3034 34.92C68.3168 34.5467 67.4768 34.04 66.7834 33.4C66.1168 32.76 65.6101 32.0133 65.2634 31.16C64.9168 30.28 64.7434 29.3333 64.7434 28.32ZM77.9834 27.92C77.9834 27.12 77.8234 26.4267 77.5034 25.84C77.1834 25.2267 76.7568 24.68 76.2234 24.2C75.7168 23.6933 75.1301 23.24 74.4634 22.84C73.7968 22.44 73.1034 22.0533 72.3834 21.68C70.7568 22.5867 69.5968 23.6 68.9034 24.72C68.2101 25.84 67.8634 26.9067 67.8634 27.92C67.8634 28.56 67.9701 29.1733 68.1834 29.76C68.3968 30.3467 68.7168 30.8533 69.1434 31.28C69.5701 31.7067 70.0901 32.0533 70.7034 32.32C71.3434 32.56 72.0768 32.68 72.9034 32.68C73.5701 32.68 74.2101 32.5867 74.8234 32.4C75.4368 32.1867 75.9701 31.8933 76.4234 31.52C76.9034 31.12 77.2768 30.6267 77.5434 30.04C77.8368 29.4267 77.9834 28.72 77.9834 27.92ZM68.5034 13.44C68.5034 14.1867 68.6501 14.8533 68.9434 15.44C69.2368 16 69.6234 16.5067 70.1034 16.96C70.6101 17.4133 71.1834 17.84 71.8234 18.24C72.4634 18.6133 73.1301 18.9733 73.8234 19.32C75.0234 18.3867 75.9034 17.4667 76.4634 16.56C77.0501 15.6533 77.3434 14.6533 77.3434 13.56C77.3434 12.2 76.9168 11.16 76.0634 10.44C75.2368 9.69333 74.2368 9.32 73.0634 9.32C72.3434 9.32 71.7034 9.44 71.1434 9.68C70.5834 9.92 70.1034 10.2267 69.7034 10.6C69.3034 10.9733 68.9968 11.4133 68.7834 11.92C68.5968 12.4 68.5034 12.9067 68.5034 13.44ZM88.1403 32.04H93.7403V12.68L94.1403 10.32L92.5403 12.2L88.1403 15.36L86.6203 13.32L95.4203 6.52H96.8603V32.04H102.34V35H88.1403V32.04ZM123.457 13.36C123.457 14.7733 123.191 16.2267 122.657 17.72C122.151 19.1867 121.471 20.6667 120.617 22.16C119.791 23.6533 118.857 25.12 117.817 26.56C116.777 27.9733 115.737 29.32 114.697 30.6L112.737 32.32V32.48L115.297 32.04H124.017V35H108.097V33.84C108.684 33.2267 109.391 32.4667 110.217 31.56C111.044 30.6533 111.897 29.6533 112.777 28.56C113.684 27.44 114.564 26.2667 115.417 25.04C116.297 23.7867 117.084 22.52 117.777 21.24C118.497 19.96 119.071 18.6933 119.497 17.44C119.924 16.1867 120.137 15 120.137 13.88C120.137 12.5733 119.764 11.4933 119.017 10.64C118.271 9.76 117.137 9.32 115.617 9.32C114.604 9.32 113.617 9.53333 112.657 9.96C111.697 10.36 110.871 10.8267 110.177 11.36L108.857 9.08C109.791 8.28 110.897 7.65333 112.177 7.2C113.457 6.74667 114.831 6.52 116.297 6.52C117.444 6.52 118.457 6.69333 119.337 7.04C120.217 7.36 120.964 7.82667 121.577 8.44C122.191 9.05333 122.657 9.78667 122.977 10.64C123.297 11.4667 123.457 12.3733 123.457 13.36ZM129.534 6.52C130.761 7.8 131.801 9.21333 132.654 10.76C133.507 12.28 134.187 13.8533 134.694 15.48C135.227 17.08 135.614 18.7067 135.854 20.36C136.094 21.9867 136.214 23.5467 136.214 25.04C136.214 26.5067 136.094 28.0533 135.854 29.68C135.614 31.3067 135.227 32.9467 134.694 34.6C134.161 36.2267 133.454 37.8267 132.574 39.4C131.721 40.9733 130.667 42.44 129.414 43.8L127.494 42.4C128.561 41.04 129.454 39.6267 130.174 38.16C130.894 36.6933 131.454 35.2133 131.854 33.72C132.281 32.2267 132.574 30.7467 132.734 29.28C132.921 27.8133 133.014 26.4 133.014 25.04C133.014 23.76 132.907 22.3733 132.694 20.88C132.481 19.3867 132.147 17.88 131.694 16.36C131.267 14.84 130.707 13.36 130.014 11.92C129.321 10.48 128.481 9.17333 127.494 8L129.534 6.52ZM152.009 28.32C152.009 26.64 152.449 25.1867 153.329 23.96C154.209 22.7067 155.582 21.5733 157.449 20.56C156.782 20.16 156.156 19.7467 155.569 19.32C155.009 18.8667 154.502 18.36 154.049 17.8C153.622 17.24 153.276 16.6133 153.009 15.92C152.769 15.2267 152.649 14.4267 152.649 13.52C152.649 12.48 152.822 11.5333 153.169 10.68C153.542 9.82666 154.062 9.09333 154.729 8.48C155.422 7.86666 156.236 7.38666 157.169 7.04C158.129 6.69333 159.209 6.52 160.409 6.52C161.529 6.52 162.542 6.68 163.449 7C164.356 7.32 165.116 7.76 165.729 8.32C166.369 8.88 166.862 9.54667 167.209 10.32C167.556 11.0933 167.729 11.9467 167.729 12.88C167.729 14.4 167.382 15.7467 166.689 16.92C165.996 18.0667 164.849 19.2 163.249 20.32C163.942 20.72 164.596 21.16 165.209 21.64C165.849 22.12 166.396 22.6533 166.849 23.24C167.329 23.8267 167.702 24.4933 167.969 25.24C168.236 25.96 168.369 26.7867 168.369 27.72C168.369 28.8667 168.182 29.92 167.809 30.88C167.436 31.8133 166.889 32.6267 166.169 33.32C165.449 33.9867 164.569 34.52 163.529 34.92C162.489 35.2933 161.302 35.48 159.969 35.48C158.689 35.48 157.556 35.2933 156.569 34.92C155.582 34.5467 154.742 34.04 154.049 33.4C153.382 32.76 152.876 32.0133 152.529 31.16C152.182 30.28 152.009 29.3333 152.009 28.32ZM165.249 27.92C165.249 27.12 165.089 26.4267 164.769 25.84C164.449 25.2267 164.022 24.68 163.489 24.2C162.982 23.6933 162.396 23.24 161.729 22.84C161.062 22.44 160.369 22.0533 159.649 21.68C158.022 22.5867 156.862 23.6 156.169 24.72C155.476 25.84 155.129 26.9067 155.129 27.92C155.129 28.56 155.236 29.1733 155.449 29.76C155.662 30.3467 155.982 30.8533 156.409 31.28C156.836 31.7067 157.356 32.0533 157.969 32.32C158.609 32.56 159.342 32.68 160.169 32.68C160.836 32.68 161.476 32.5867 162.089 32.4C162.702 32.1867 163.236 31.8933 163.689 31.52C164.169 31.12 164.542 30.6267 164.809 30.04C165.102 29.4267 165.249 28.72 165.249 27.92ZM155.769 13.44C155.769 14.1867 155.916 14.8533 156.209 15.44C156.502 16 156.889 16.5067 157.369 16.96C157.876 17.4133 158.449 17.84 159.089 18.24C159.729 18.6133 160.396 18.9733 161.089 19.32C162.289 18.3867 163.169 17.4667 163.729 16.56C164.316 15.6533 164.609 14.6533 164.609 13.56C164.609 12.2 164.182 11.16 163.329 10.44C162.502 9.69333 161.502 9.32 160.329 9.32C159.609 9.32 158.969 9.44 158.409 9.68C157.849 9.92 157.369 10.2267 156.969 10.6C156.569 10.9733 156.262 11.4133 156.049 11.92C155.862 12.4 155.769 12.9067 155.769 13.44ZM175.406 32.04H181.006V12.68L181.406 10.32L179.806 12.2L175.406 15.36L173.886 13.32L182.686 6.52H184.126V32.04H189.606V35H175.406V32.04ZM210.723 13.36C210.723 14.7733 210.456 16.2267 209.923 17.72C209.416 19.1867 208.736 20.6667 207.883 22.16C207.056 23.6533 206.123 25.12 205.083 26.56C204.043 27.9733 203.003 29.32 201.963 30.6L200.003 32.32V32.48L202.563 32.04H211.283V35H195.363V33.84C195.949 33.2267 196.656 32.4667 197.483 31.56C198.309 30.6533 199.163 29.6533 200.043 28.56C200.949 27.44 201.829 26.2667 202.683 25.04C203.563 23.7867 204.349 22.52 205.043 21.24C205.763 19.96 206.336 18.6933 206.763 17.44C207.189 16.1867 207.403 15 207.403 13.88C207.403 12.5733 207.029 11.4933 206.283 10.64C205.536 9.76 204.403 9.32 202.883 9.32C201.869 9.32 200.883 9.53333 199.923 9.96C198.963 10.36 198.136 10.8267 197.443 11.36L196.123 9.08C197.056 8.28 198.163 7.65333 199.443 7.2C200.723 6.74667 202.096 6.52 203.563 6.52C204.709 6.52 205.723 6.69333 206.603 7.04C207.483 7.36 208.229 7.82667 208.843 8.44C209.456 9.05333 209.923 9.78667 210.243 10.64C210.563 11.4667 210.723 12.3733 210.723 13.36ZM217.04 22H226.72V24.96H217.04V22ZM233.414 32.04H239.014V12.68L239.414 10.32L237.814 12.2L233.414 15.36L231.894 13.32L240.694 6.52H242.134V32.04H247.614V35H233.414V32.04ZM268.731 13.36C268.731 14.7733 268.464 16.2267 267.931 17.72C267.424 19.1867 266.744 20.6667 265.891 22.16C265.064 23.6533 264.131 25.12 263.091 26.56C262.051 27.9733 261.011 29.32 259.971 30.6L258.011 32.32V32.48L260.571 32.04H269.291V35H253.371V33.84C253.957 33.2267 254.664 32.4667 255.491 31.56C256.317 30.6533 257.171 29.6533 258.051 28.56C258.957 27.44 259.837 26.2667 260.691 25.04C261.571 23.7867 262.357 22.52 263.051 21.24C263.771 19.96 264.344 18.6933 264.771 17.44C265.197 16.1867 265.411 15 265.411 13.88C265.411 12.5733 265.037 11.4933 264.291 10.64C263.544 9.76 262.411 9.32 260.891 9.32C259.877 9.32 258.891 9.53333 257.931 9.96C256.971 10.36 256.144 10.8267 255.451 11.36L254.131 9.08C255.064 8.28 256.171 7.65333 257.451 7.2C258.731 6.74667 260.104 6.52 261.571 6.52C262.717 6.52 263.731 6.69333 264.611 7.04C265.491 7.36 266.237 7.82667 266.851 8.44C267.464 9.05333 267.931 9.78667 268.251 10.64C268.571 11.4667 268.731 12.3733 268.731 13.36ZM275.048 22H284.728V24.96H275.048V22ZM291.422 32.04H297.022V12.68L297.422 10.32L295.822 12.2L291.422 15.36L289.902 13.32L298.702 6.52H300.142V32.04H305.622V35H291.422V32.04ZM326.738 13.36C326.738 14.7733 326.472 16.2267 325.938 17.72C325.432 19.1867 324.752 20.6667 323.898 22.16C323.072 23.6533 322.138 25.12 321.098 26.56C320.058 27.9733 319.018 29.32 317.978 30.6L316.018 32.32V32.48L318.578 32.04H327.298V35H311.378V33.84C311.965 33.2267 312.672 32.4667 313.498 31.56C314.325 30.6533 315.178 29.6533 316.058 28.56C316.965 27.44 317.845 26.2667 318.698 25.04C319.578 23.7867 320.365 22.52 321.058 21.24C321.778 19.96 322.352 18.6933 322.778 17.44C323.205 16.1867 323.418 15 323.418 13.88C323.418 12.5733 323.045 11.4933 322.298 10.64C321.552 9.76 320.418 9.32 318.898 9.32C317.885 9.32 316.898 9.53333 315.938 9.96C314.978 10.36 314.152 10.8267 313.458 11.36L312.138 9.08C313.072 8.28 314.178 7.65333 315.458 7.2C316.738 6.74667 318.112 6.52 319.578 6.52C320.725 6.52 321.738 6.69333 322.618 7.04C323.498 7.36 324.245 7.82667 324.858 8.44C325.472 9.05333 325.938 9.78667 326.258 10.64C326.578 11.4667 326.738 12.3733 326.738 13.36Z" fill="black"/>
</svg>
